<svg xmlns="http://www.w3.org/2000/svg" version="1.1" xmlns:xlink="http://www.w3.org/1999/xlink" width="512" height="512" x="0" y="0" viewBox="0 0 510 510" style="enable-background:new 0 0 512 512" xml:space="preserve" class=""><g><path d="M276.645 150H375v-26.221l-23.011-25.452c-5.408-5.981-12.819-9.271-20.876-9.271h-.125c-8.106.034-15.538 3.39-20.923 9.449a64.28 64.28 0 0 1-48.004 21.557h-14.12a64.277 64.277 0 0 1-48.005-21.558c-5.385-6.059-12.816-9.414-20.923-9.448h-.125c-8.058 0-15.467 3.289-20.875 9.271L135 123.779V150h98.355zM287.69 209.454C292.299 221.743 304.213 230 317.338 230h13.89C347.093 230 360 217.093 360 201.228V180h-83.355zM178.772 230h13.89c13.125 0 25.039-8.257 29.647-20.546L233.355 180H150v21.228C150 217.093 162.907 230 178.772 230zM222.13 408.713 240 380.632v-5.626a148.422 148.422 0 0 1-34.103-7.5zM411.107 430.442l-45.18 15.06L371.302 510H510a145.74 145.74 0 0 0-61.03-118.593l-26.138-18.67a145.844 145.844 0 0 0-18.555-11.266z" fill="#000000" opacity="1" data-original="#000000" class=""></path><path d="M363.567 276.912a118.953 118.953 0 0 0 10.397-35.401C363.24 252.881 348.054 260 331.228 260h-13.89c-25.56 0-48.763-16.08-57.737-40.013L255 207.719l-4.601 12.268C241.425 243.92 218.222 260 192.662 260h-13.89c-16.813 0-31.989-7.108-42.711-18.463 2.933 22.295 11.969 42.667 25.396 59.364A120.76 120.76 0 0 0 195.546 330c17.527 10.017 37.821 15.744 59.453 15.744 21.633 0 41.927-5.727 59.453-15.744a112.593 112.593 0 0 0 5.831-3.57l2.1-1.4c17.698-11.978 32.077-28.786 41.184-48.118zM140.076 69.653c12.677-14.021 30.787-22.063 49.689-22.063a67.043 67.043 0 0 1 50.069 22.484 12.205 12.205 0 0 0 9.115 4.093h12.103c3.481 0 6.803-1.492 9.115-4.093a67.044 67.044 0 0 1 50.067-22.484h.004c18.9 0 37.01 8.042 49.686 22.063l2.32 2.566C362.037 30.755 324.613 0 280 0h-50c-44.613 0-82.037 30.755-92.243 72.218zM49 349.997c0 4.606.763 8.487 1.895 11.783l19.898-14.213a175.74 175.74 0 0 1 15.691-9.996c2.423-4.255 4.517-9.922 4.517-17.576 0-12.762-5.813-20.028-9.287-24.37-2.484-3.104-2.714-3.454-2.714-5.629 0-2.176.23-2.525 2.713-5.63 3.474-4.342 9.287-11.608 9.287-24.37s-5.813-20.028-9.287-24.37c-1.606-2.008-2.267-2.863-2.535-3.806C86.493 236.966 95.396 240 105 240h.673a152.332 152.332 0 0 1-.673-14.256V150c-24.813 0-45 20.187-45 45 0 2.513.217 4.975.615 7.376-.357.769-1.036 1.637-2.328 3.251C54.813 209.97 49 217.236 49 229.998s5.813 20.028 9.287 24.37c2.483 3.104 2.713 3.453 2.713 5.628 0 2.176-.23 2.525-2.713 5.63-3.474 4.342-9.287 11.608-9.287 24.37s5.813 20.028 9.287 24.37C60.77 317.47 61 317.819 61 319.994c0 2.178-.23 2.527-2.714 5.632C54.813 329.968 49 337.235 49 349.997zM144.073 445.502l-45.18-15.06 6.849-69.167a146.948 146.948 0 0 0-15.858 9.565c-.549.383-1.104.756-1.654 1.138l-27.2 19.429A145.74 145.74 0 0 0 0 510h138.698zM274.837 441.797l-19.545-29.317-19.566 30.746L255 492.151zM334.073 424.498l44.82-14.94-5.966-60.249-22.778-7.593a150.318 150.318 0 0 1-5.273 4.141L280.213 510h60.985zM168.802 510h60.985l-64.663-164.143a150.49 150.49 0 0 1-6.176-4.897l-21.811 7.698-6.031 60.9 44.82 14.94zM270 380.458l18.229 27.344 15.874-40.296a148.422 148.422 0 0 1-34.103 7.5z" fill="#000000" opacity="1" data-original="#000000" class=""></path></g></svg>